<svg width="103" height="72" viewBox="0 0 103 72" fill="none" xmlns="http://www.w3.org/2000/svg">
<g opacity="0.1">
<path d="M0.97684 18.1161C3.64206 11.1695 11.1328 7.2316 18.0164 5.68343C25.6485 3.94893 33.6375 4.54221 41.0573 7.03878C56.1035 12.0187 67.5029 23.7317 76.7342 36.137C82.4844 43.857 87.4393 52.1121 91.7277 60.7556C92.125 61.5597 91.4384 62.71 90.6942 62.9652C89.7479 63.3025 88.8819 62.7359 88.4846 61.9318C84.8354 54.63 80.6531 47.639 75.9376 40.9587C71.6062 34.8761 66.9437 29.0221 61.5637 23.8365C51.0367 13.865 37.1572 6.5978 22.2733 8.45221C15.2766 9.31626 6.84221 12.5542 4.1214 19.7118C3.76132 20.5646 2.60404 20.8463 1.82011 20.4818C0.820782 19.9929 0.616761 18.9689 0.97684 18.1161Z" fill="black"/>
<path d="M100.918 35.898C98.0786 44.446 95.2396 52.994 92.4006 61.542C91.8226 63.3076 91.3577 65.7573 89.1676 66.1053C88.0748 66.3138 87.0754 65.8248 86.1361 65.1938C85.1968 64.5627 84.3263 63.9272 83.3826 63.2272C79.6898 60.6297 76.0613 57.9588 72.3685 55.3612C68.236 52.377 64.108 49.4617 59.9755 46.4775C59.2471 45.9021 59.2408 44.7271 59.8207 44.0676C60.4651 43.3349 61.5023 43.3374 62.2307 43.9129C68.9701 48.7347 75.7096 53.5565 82.3757 58.3139C84.1122 59.5161 85.7843 60.7915 87.5208 61.9936C87.7362 62.1181 88.3047 62.3581 88.4601 62.6247C88.6111 62.8224 88.5246 62.5514 88.3957 62.698C88.0179 63.2753 88.1891 62.7112 88.1891 62.7112C88.1847 62.6424 88.5448 61.7896 88.5404 61.7207C88.7116 61.1566 88.8872 60.6614 89.0584 60.0973C90.3301 56.213 91.6706 52.3244 92.9378 48.3712C94.3807 43.9229 95.8924 39.4701 97.3352 35.0217C97.622 34.1045 98.4129 33.5006 99.3946 33.7142C100.385 34.0654 101.209 35.0496 100.918 35.898Z" fill="black"/>
</g>
</svg>
