<svg width="129" height="39" viewBox="0 0 129 39" fill="none" xmlns="http://www.w3.org/2000/svg" preserveAspectRatio="none">
<path fill-rule="evenodd" clip-rule="evenodd" d="M19.2114 38.7113C29.8215 38.7113 38.4227 30.1101 38.4227 19.4999C38.4227 15.6906 37.314 12.1403 35.4017 9.15392C35.2877 9.16467 35.169 9.1701 35.0457 9.1701H21.8239V18.2227H34.0849C35.5947 18.2227 36.464 19.0415 36.464 20.4972C36.464 21.9984 35.5947 22.8628 34.0849 22.8628H21.8239V33.8715C21.8239 35.873 20.8631 36.9648 18.9874 36.9648C17.0659 36.9648 15.9679 35.873 15.9679 33.8715V7.62343C15.9679 5.62184 17.0659 4.53007 19.0789 4.53007H31.2532C27.9589 1.87676 23.7706 0.288574 19.2114 0.288574C8.60122 0.288574 0 8.88979 0 19.4999C0 30.1101 8.60122 38.7113 19.2114 38.7113Z" fill="url(#paint0_linear_12_10493)"/>
<path d="M52.3794 30.2758C53.5948 30.2758 54.2173 29.5643 54.2173 28.2599V21.086H62.162C63.1403 21.086 63.7035 20.5228 63.7035 19.5445C63.7035 18.5959 63.1403 18.0623 62.162 18.0623H54.2173V12.1631H62.7845C63.7924 12.1631 64.326 11.5998 64.326 10.6216C64.326 9.67295 63.7924 9.13935 62.7845 9.13935H52.4387C51.1343 9.13935 50.4229 9.85081 50.4229 11.1552V28.2599C50.4229 29.5643 51.1343 30.2758 52.3794 30.2758Z" fill="white"/>
<path d="M68.8487 12.5781C70.2716 12.5781 71.0423 11.8666 71.0423 10.6216C71.0423 9.34686 70.2716 8.66504 68.8487 8.66504C67.4554 8.66504 66.655 9.34686 66.655 10.6216C66.655 11.8666 67.4554 12.5781 68.8487 12.5781ZM68.8487 30.2461C70.0641 30.2461 70.7162 29.505 70.7162 28.2303V17.3508C70.7162 16.0465 70.0344 15.335 68.8487 15.335C67.6629 15.335 67.0107 16.0465 67.0107 17.3508V28.2303C67.0107 29.505 67.6629 30.2461 68.8487 30.2461Z" fill="white"/>
<path d="M75.5152 30.2758C76.7306 30.2758 77.3827 29.5939 77.3827 28.3785V21.8864C77.3827 19.6334 78.776 18.1512 80.9401 18.1512C82.7187 18.1512 83.5488 19.1295 83.5488 21.3825V28.3785C83.5488 29.5939 84.2306 30.2758 85.4164 30.2758C86.6021 30.2758 87.2543 29.5939 87.2543 28.3785V21.2046C87.2543 17.173 85.5942 15.2461 82.1258 15.2461C80.0507 15.2461 78.2721 16.1354 77.2938 17.7955V17.173C77.2938 15.9575 76.6416 15.3054 75.4855 15.3054C74.3294 15.3054 73.6772 15.9575 73.6772 17.173V28.3785C73.6772 29.5939 74.3294 30.2758 75.5152 30.2758Z" fill="white"/>
<path d="M95.0792 30.335C95.4943 30.335 95.9389 30.3054 96.354 30.2461C97.2729 30.1275 97.6287 29.5939 97.6287 28.586C97.6287 27.4595 97.4804 27.1631 96.9172 27.2224C96.6504 27.252 96.3836 27.2817 96.0575 27.2817C94.6346 27.2817 93.8342 26.422 93.8342 24.6137V10.7698C93.8342 9.55437 93.1524 8.90219 91.9666 8.90219C90.7808 8.90219 90.1286 9.55437 90.1286 10.7698V24.7916C90.1286 28.4378 91.7887 30.335 95.0792 30.335Z" fill="white"/>
<path d="M103.479 30.335C105.524 30.335 107.036 29.3568 107.688 27.7263V28.3785C107.688 29.5939 108.311 30.2758 109.437 30.2758C110.534 30.2758 111.156 29.5939 111.156 28.3785V21.2639C111.156 17.1433 109.141 15.2461 104.901 15.2461C103.508 15.2461 101.789 15.5425 99.9805 16.2836C98.1426 17.0247 98.943 19.8409 100.84 18.9516C102.293 18.2698 103.627 18.0326 104.783 18.0326C106.828 18.0326 107.629 18.833 107.629 20.8192V21.4417H106.591C100.307 21.4417 98.0536 22.5682 98.0536 25.7402C98.0536 28.3489 100.336 30.335 103.479 30.335ZM104.249 27.7856C102.619 27.7856 101.67 26.8667 101.67 25.5623C101.67 24.0504 102.915 23.5761 106.621 23.5761H107.629V24.2283C107.629 26.3034 106.176 27.7856 104.249 27.7856Z" fill="white"/>
<path d="M122.388 30.335C126.182 30.335 128.761 27.4299 128.761 22.7757C128.761 18.1216 126.212 15.2461 122.388 15.2461C120.342 15.2461 118.593 16.1947 117.734 17.6769V10.7698C117.734 9.55437 117.052 8.90219 115.866 8.90219C114.68 8.90219 114.028 9.55437 114.028 10.7698V28.3785C114.028 29.5939 114.68 30.2758 115.866 30.2758C117.022 30.2758 117.674 29.5939 117.674 28.3785V27.756C118.505 29.3568 120.283 30.335 122.388 30.335ZM121.35 27.5188C119.127 27.5188 117.674 25.918 117.674 22.7757C117.674 19.6334 119.127 18.0623 121.35 18.0623C123.544 18.0623 125.026 19.6334 125.026 22.7757C125.026 25.918 123.544 27.5188 121.35 27.5188Z" fill="white"/>
<defs>
<linearGradient id="paint0_linear_12_10493" x1="14.5999" y1="6" x2="24.0999" y2="41" gradientUnits="userSpaceOnUse">
<stop stop-color="#2AAC95"/>
<stop offset="0.989583" stop-color="#76D1F7"/>
</linearGradient>
</defs>
</svg>
