<svg width="27" height="19" viewBox="0 0 27 19" fill="none" xmlns="http://www.w3.org/2000/svg">
<path opacity="0.5" d="M17.7278 18.1902C16.009 18.1905 14.3287 17.6811 12.8995 16.7264C11.4702 15.7717 10.3561 14.4146 9.69814 12.8267C9.04016 11.2389 8.8678 9.49158 9.20287 7.80578C9.53793 6.11997 10.3654 4.57137 11.5806 3.35583C12.7957 2.14028 14.3441 1.31238 16.0298 0.976809C17.7155 0.64124 19.4629 0.813077 21.0509 1.47059C22.639 2.12811 23.9964 3.24177 24.9515 4.67074C25.9066 6.09972 26.4165 7.77983 26.4168 9.49862V9.49991C26.4144 11.8038 25.4982 14.0126 23.8693 15.6418C22.2403 17.271 20.0316 18.1875 17.7278 18.1902Z" fill="#EDF1F3"/>
<path d="M9.27237 18.1902C7.55358 18.1902 5.8734 17.6806 4.44428 16.7257C3.01516 15.7707 1.9013 14.4135 1.24355 12.8256C0.585797 11.2376 0.413699 9.49027 0.749017 7.80451C1.08434 6.11875 1.91201 4.57028 3.12737 3.35491C4.34274 2.13955 5.89121 1.31187 7.57697 0.976556C9.26273 0.641238 11.0101 0.813336 12.598 1.47109C14.186 2.12884 15.5432 3.2427 16.4981 4.67182C17.453 6.10093 17.9627 7.78112 17.9627 9.49991C17.9603 11.804 17.044 14.013 15.4147 15.6423C13.7855 17.2715 11.5765 18.1878 9.27237 18.1902Z" fill="#EDF1F3"/>
</svg>
