<svg width="28" height="17" viewBox="0 0 28 17" fill="none" xmlns="http://www.w3.org/2000/svg">
<g opacity="0.73">
<path d="M10.3496 1.94189H17.6496V15.0587H10.3496V1.94189Z" fill="#FF5F00"/>
<path d="M10.8127 8.50008C10.8127 5.83504 12.0641 3.47119 13.9876 1.94163C12.574 0.829266 10.7896 0.157227 8.84296 0.157227C4.23106 0.157227 0.5 3.88828 0.5 8.50008C0.5 13.1118 4.23106 16.8429 8.84286 16.8429C10.7895 16.8429 12.5739 16.1709 13.9876 15.0584C12.0641 13.5521 10.8127 11.1651 10.8127 8.50008Z" fill="#EB001B"/>
<path d="M27.5003 8.50008C27.5003 13.1118 23.7692 16.8429 19.1574 16.8429C17.2107 16.8429 15.4263 16.1709 14.0127 15.0584C15.9594 13.529 17.1876 11.1651 17.1876 8.50008C17.1876 5.83504 15.9361 3.47119 14.0127 1.94163C15.4262 0.829266 17.2107 0.157227 19.1574 0.157227C23.7692 0.157227 27.5004 3.91151 27.5004 8.50008H27.5003Z" fill="#F79E1B"/>
</g>
</svg>
